HIERARCHY
ROOT Hips
{
	OFFSET 0.00000 0.00000 0.00000
	CHANNELS 6 Xposition Yposition Zposition Zrotation Yrotation Xrotation 
	JOINT LHipJoint
	{
		OFFSET 0 0 0
		CHANNELS 3 Zrotation Yrotation Xrotation
		JOINT LeftHip
		{
			OFFSET 1.84395 -1.68683 0.74144
			CHANNELS 3 Zrotation Yrotation Xrotation
			JOINT LeftKnee
			{
				OFFSET 2.27037 -6.23779 0.00000
				CHANNELS 3 Zrotation Yrotation Xrotation
				JOINT LeftAnkle
				{
					OFFSET 2.56918 -7.05877 0.00000
					CHANNELS 3 Zrotation Yrotation Xrotation
					JOINT LeftToe
					{
						OFFSET 0.22276 -0.61202 1.71784
						CHANNELS 3 Zrotation Yrotation Xrotation
						End Site
						{
							OFFSET 0.00000 -0.00000 0.91613
						}
					}
				}
			}
		}
	}
	JOINT RHipJoint
	{
		OFFSET 0 0 0
		CHANNELS 3 Zrotation Yrotation Xrotation
		JOINT RightHip
		{
			OFFSET -1.76833 -1.68684 0.74144
			CHANNELS 3 Zrotation Yrotation Xrotation
			JOINT RightKnee
			{
				OFFSET -2.49360 -6.85110 0.00000
				CHANNELS 3 Zrotation Yrotation Xrotation
				JOINT RightAnkle
				{
					OFFSET -2.55538 -7.02085 0.00000
					CHANNELS 3 Zrotation Yrotation Xrotation
					JOINT RightToe
					{
						OFFSET -0.21516 -0.59115 1.68050
						CHANNELS 3 Zrotation Yrotation Xrotation
						End Site
						{
							OFFSET -0.00000 -0.00000 0.89604
						}
					}
				}
			}
		}
	}
	JOINT lowerback
	{
		OFFSET 0 0 0
		CHANNELS 3 Zrotation Yrotation Xrotation
		JOINT Chest
		{
			OFFSET 0.06382 1.72312 -0.19613
			CHANNELS 3 Zrotation Yrotation Xrotation
			JOINT Chest2
			{
				OFFSET -0.00055 1.73507 0.23859
				CHANNELS 3 Zrotation Yrotation Xrotation
				JOINT lowerneck
				{
					OFFSET 0 0 0
					CHANNELS 3 Zrotation Yrotation Xrotation
					JOINT Neck
					{
						OFFSET 0.03638 1.65562 0.09633
						CHANNELS 3 Zrotation Yrotation Xrotation
						JOINT Head
						{
							OFFSET 0.06388 1.62807 -0.32386
							CHANNELS 3 Zrotation Yrotation Xrotation
							End Site
							{
								OFFSET 0.00995 1.67644 -0.12021
							}
						}
					}
				}
				JOINT LeftCollar
				{
					OFFSET 0 0 0
					CHANNELS 3 Zrotation Yrotation Xrotation
					JOINT LeftShoulder
					{
						OFFSET 3.09648 1.42991 0.28122
CHANNELS 3 Zrotation Xrotation Yrotation
						JOINT LeftElbow
						{
OFFSET 0 -5.118780 -0.000000
CHANNELS 3 Zrotation Xrotation Yrotation
							JOINT LeftWrist
							{
OFFSET 0 -3.599710 0.000000
CHANNELS 3 Zrotation Xrotation Yrotation
								JOINT lhand
								{
									OFFSET 0 0 0
CHANNELS 3 Zrotation Xrotation Yrotation
									JOINT LFingers
									{
OFFSET 0 -0.628770 0.000000
CHANNELS 3 Zrotation Xrotation Yrotation
										End Site
										{
OFFSET 0 -0.506930 0.000000
										}
									}
								}
								JOINT LThumb
								{
OFFSET 0 0.000000 0.000000
CHANNELS 3 Zrotation Xrotation Yrotation
									End Site
									{
OFFSET 0 -0.514670 0.514670
									}
								}
							}
						}
					}
				}
				JOINT RightCollar
				{
					OFFSET 0 0 0
					CHANNELS 3 Zrotation Yrotation Xrotation
					JOINT RightShoulder
					{
						OFFSET -3.33565 1.14597 0.05047
CHANNELS 3 Zrotation Xrotation Yrotation
						JOINT RightElbow
						{
OFFSET 0 -5.490200 0.000000
CHANNELS 3 Zrotation Xrotation Yrotation
							JOINT RightWrist
							{
OFFSET 0 -3.206590 -0.000000
CHANNELS 3 Zrotation Xrotation Yrotation
								JOINT rhand
								{
									OFFSET 0 0 0
CHANNELS 3 Zrotation Xrotation Yrotation
									JOINT RFingers
									{
OFFSET 0 -0.691880 0.000000
CHANNELS 3 Zrotation Xrotation Yrotation
										End Site
										{
OFFSET 0 -0.557810 0.000000
										}
									}
								}
								JOINT RThumb
								{
OFFSET 0 0.000000 0.000000
CHANNELS 3 Zrotation Xrotation Yrotation
									End Site
									{
OFFSET 0 -0.566330 0.566330
									}
								}
							}
						}
					}
				}
			}
		}
	}
}
MOTION
Frames: 6
Frame Time: 0.008333333333333333
0.771200 17.427400 9.174400 -9.652600 -4.413900 10.532900 0.000000 0.000000 0.000000 -19.390100 -41.410800 24.509300 0.061200 -1.596800 -4.392700 -4.705700 43.645300 -46.949300 0.875400 5.965200 16.683400 0.000000 0.000000 0.000000 27.529600 26.365400 4.512300 -0.009200 -0.620200 1.704200 0.799900 -18.915000 -18.525600 -0.013500 0.748900 -2.058100 6.196300 1.789500 -2.185900 0.989000 2.603600 -8.601800 -2.525200 0.901300 -7.591600 0.566400 -3.242300 -13.571900 9.033000 -7.991200 31.245200 2.198100 -2.307100 13.147700 0.000000 -0.000000 0.000000 -1.406500 5.013200 24.743100 12.320600 -20.283700 2.212200 17.524300 21.270800 10.417000 0.000000 0.000000 0.000000 -7.125000 0.000000 0.000000 -6.735400 19.108400 -4.188300 0.000000 -0.000000 0.000000 5.774100 5.679500 -30.090000 -14.615400 -23.607700 -3.070300 7.152300 43.885200 31.674300 0.000000 0.000000 0.000000 7.125000 0.000000 -0.000000 41.828300 56.464600 -13.375900
0.768915 17.424446 9.173892 -9.948933 -4.281705 10.463740 0.000000 0.000000 0.000000 -19.095304 -41.420962 24.679089 0.063746 -1.629211 -4.481940 -4.611152 43.532760 -47.036172 0.911371 6.083097 17.025652 0.000000 0.000000 0.000000 27.886831 26.116889 4.436983 -0.010608 -0.664597 1.826260 0.785536 -18.774582 -18.415158 -0.058040 1.535909 -4.225151 6.488898 1.684191 -2.192440 1.540254 2.507629 -8.711923 -2.104688 0.849231 -7.736434 -1.418888 -3.199945 -12.582951 9.905195 -7.606659 30.938003 2.951539 -2.305683 12.892026 0.000000 0.000000 0.000000 -2.685187 5.424999 25.006914 12.330024 -20.297778 2.215431 17.599853 20.978601 10.606380 0.000000 0.000000 0.000000 -7.125000 0.000000 0.000000 -6.681792 18.906719 -4.184690 0.000000 0.000000 0.000000 4.883009 6.037113 -29.534884 -14.518330 -23.470875 -3.031461 7.277556 43.815868 31.395566 0.000000 0.000000 0.000000 7.125000 0.000000 0.000000 41.680125 56.224634 -13.059187
0.764205 17.427233 9.181713 -9.889009 -4.214570 10.604930 0.000000 0.000000 0.000000 -19.138818 -41.672055 24.663364 0.063984 -1.632396 -4.490704 -4.670586 43.698745 -47.187320 0.897965 6.039479 16.899201 0.000000 0.000000 0.000000 27.757856 26.127576 4.267430 -0.010815 -0.671242 1.844582 0.785230 -18.777060 -18.424790 -0.071732 1.717201 -4.724973 6.349394 1.556188 -2.637788 2.022932 2.327652 -8.806988 -1.500554 0.791624 -7.621237 -3.553293 -3.161453 -11.659894 10.873709 -7.262736 30.584115 3.759605 -2.325756 12.635469 0.000000 0.000000 0.000000 -3.939473 5.856756 24.779820 12.428702 -20.444417 2.249817 17.614950 20.548911 9.907553 0.000000 0.000000 0.000000 -7.125000 0.000000 0.000000 -6.672947 19.631151 -4.070254 0.000000 0.000000 0.000000 3.867924 6.183257 -29.289388 -14.366761 -23.256526 -2.971451 7.536092 43.902244 31.353510 0.000000 0.000000 0.000000 7.125000 0.000000 0.000000 41.874529 56.139274 -13.044903
0.751412 17.441180 9.210246 -9.373928 -4.175815 11.180881 0.000000 0.000000 0.000000 -19.730885 -42.673641 24.616483 0.062376 -1.611618 -4.433577 -4.690618 44.172503 -48.130372 0.918789 6.107009 17.095222 0.000000 0.000000 0.000000 26.970732 26.639140 3.963379 -0.007707 -0.567124 1.558310 0.829021 -19.154863 -18.655159 -0.007418 0.390578 -1.073450 5.530610 1.347713 -3.939554 2.595945 1.968431 -8.989558 -0.404030 0.703767 -7.129923 -6.327639 -3.019338 -10.723007 12.245255 -6.808224 30.436053 4.870802 -2.318300 12.477118 0.000000 0.000000 0.000000 -5.542875 6.319352 24.723159 12.665332 -20.794874 2.333139 17.464986 20.159205 8.062774 0.000000 0.000000 0.000000 -7.125000 0.000000 0.000000 -6.799457 21.556025 -3.852390 0.000000 0.000000 0.000000 2.298274 6.325116 -29.006405 -13.957294 -22.673536 -2.811670 7.178821 44.254923 31.404813 0.000000 0.000000 0.000000 7.125000 0.000000 0.000000 41.599430 56.252062 -13.056364
0.748323 17.443223 9.213290 -9.236497 -4.127443 11.238385 0.000000 0.000000 0.000000 -19.783212 -42.712935 24.473439 0.061546 -1.600886 -4.403898 -4.662481 44.099391 -48.069545 0.916888 6.100795 17.077270 0.000000 0.000000 0.000000 26.825814 26.780452 3.984299 -0.007400 -0.554054 1.522586 0.849583 -19.332018 -18.768588 -0.000039 0.045563 -0.125110 5.307589 1.298147 -4.141190 2.599878 1.885668 -9.010072 -0.270493 0.679747 -7.043799 -6.338824 -2.952727 -10.855469 12.306172 -6.770848 30.851518 4.924887 -2.284329 12.676029 0.000000 0.000000 0.000000 -5.656778 6.330264 24.795194 12.628029 -20.739791 2.319937 17.541560 20.187747 7.929925 0.000000 0.000000 0.000000 -7.125000 0.000000 0.000000 -6.745981 21.690135 -3.800946 0.000000 0.000000 0.000000 2.104611 6.319256 -29.150258 -13.871739 -22.550998 -2.778722 7.028586 44.486776 31.413188 0.000000 0.000000 0.000000 7.125000 0.000000 0.000000 41.471267 56.289443 -13.045150
0.748670 17.442014 9.210814 -9.213038 -4.061607 11.187851 0.000000 0.000000 0.000000 -19.670540 -42.528087 24.290907 0.061400 -1.599070 -4.398939 -4.703223 43.971582 -47.661086 0.889667 6.012327 16.820210 0.000000 0.000000 0.000000 26.810387 26.686836 4.009074 -0.007100 -0.543877 1.494454 0.864260 -19.377737 -18.666504 -0.000523 0.149103 -0.409568 5.372059 1.387605 -4.146440 2.461091 1.998033 -9.001647 -0.453638 0.726556 -7.019813 -6.160771 -3.039969 -10.889103 12.234839 -6.937483 31.011256 4.848259 -2.341604 12.762594 0.000000 0.000000 0.000000 -5.423146 6.294909 24.632696 12.536972 -20.604989 2.287713 17.590738 20.317416 7.930482 0.000000 0.000000 0.000000 -7.125000 0.000000 0.000000 -6.710276 21.687132 -3.781083 0.000000 0.000000 0.000000 2.153714 6.380657 -29.635051 -13.897801 -22.588387 -2.788751 6.939255 44.569750 31.655960 0.000000 0.000000 0.000000 7.125000 0.000000 0.000000 41.618138 56.494868 -13.322924
